<svg xmlns="http://www.w3.org/2000/svg" viewBox="0 0 1280 640" width="1280" height="640" role="img" aria-label="What Broke and Why by Luv Verma. Policy entropy collapses to 0.17, explodes, then damps under Clip-Cov.">
  <defs><linearGradient id="fade" x1="0" y1="0" x2="0" y2="1">
    <stop offset="0%" stop-color="#E8E4DA" stop-opacity="0.09"/>
    <stop offset="100%" stop-color="#E8E4DA" stop-opacity="0"/></linearGradient></defs>
  <rect width="1280" height="640" fill="#0B1013"/>
  <line x1="64" y1="152" x2="1216" y2="152" stroke="#22303A" stroke-width="1"/>
  <line x1="64" y1="252" x2="1216" y2="252" stroke="#22303A" stroke-width="1"/>
  <text x="64" y="102" fill="#E8E4DA" font-family="'Space Grotesk',Inter,'Helvetica Neue',Arial,sans-serif" font-size="74" font-weight="700" letter-spacing="-2.6">What Broke<tspan fill="#6B7A80"> &amp; </tspan>Why</text>
  <text x="67" y="136" fill="#6B7A80" font-family="Georgia,'IBM Plex Serif',serif" font-size="20.5" font-style="italic">Practical lessons from reinforcement learning post-training</text>
  <text x="64" y="184" fill="#E8E4DA" font-family="ui-monospace,'SF Mono',Menlo,monospace" font-size="12" letter-spacing="1.6">LUV VERMA, PhD</text>
  <text x="236" y="184" fill="#6B7A80" font-family="ui-monospace,'SF Mono',Menlo,monospace" font-size="12" letter-spacing="1.1">FIRST EDITION v1.0 · JULY 2026</text>
  <text x="64" y="222" fill="#E8E4DA" font-family="'Space Grotesk',Inter,sans-serif" font-size="20" font-weight="500">648</text>
  <text x="64" y="239" fill="#6B7A80" font-family="ui-monospace,'SF Mono',Menlo,monospace" font-size="9" letter-spacing="1.1">PAGES</text>
  <text x="264" y="222" fill="#E8E4DA" font-family="'Space Grotesk',Inter,sans-serif" font-size="20" font-weight="500">157</text>
  <text x="264" y="239" fill="#6B7A80" font-family="ui-monospace,'SF Mono',Menlo,monospace" font-size="9" letter-spacing="1.1">CHAPTERS</text>
  <text x="464" y="222" fill="#E8E4DA" font-family="'Space Grotesk',Inter,sans-serif" font-size="20" font-weight="500">1–8</text>
  <text x="464" y="239" fill="#6B7A80" font-family="ui-monospace,'SF Mono',Menlo,monospace" font-size="9" letter-spacing="1.1">GPUs, START TO FINISH</text>
  <text x="664" y="222" fill="#E8E4DA" font-family="'Space Grotesk',Inter,sans-serif" font-size="20" font-weight="500">CC BY 4.0</text>
  <text x="664" y="239" fill="#6B7A80" font-family="ui-monospace,'SF Mono',Menlo,monospace" font-size="9" letter-spacing="1.1">FREE, FOREVER</text>
  <line x1="64" y1="476" x2="1216" y2="476" stroke="#22303A" stroke-width="1" stroke-dasharray="2 8"/><line x1="64" y1="405" x2="1216" y2="405" stroke="#22303A" stroke-width="1" stroke-dasharray="2 8"/><line x1="64" y1="334" x2="1216" y2="334" stroke="#22303A" stroke-width="1" stroke-dasharray="2 8"/>
  <rect x="64" y="262" width="253" height="286" fill="#D64545" opacity="0.05"/>
  <line x1="64" y1="262" x2="64" y2="548" stroke="#D64545" stroke-width="1" opacity="0.4"/>
  <text x="76" y="286" fill="#D64545" font-family="ui-monospace,'SF Mono',Menlo,monospace" font-size="12" letter-spacing="1.5">COLLAPSE</text>
  <text x="76" y="304" fill="#6B7A80" font-family="ui-monospace,'SF Mono',Menlo,monospace" font-size="10.5">Ch 40 · entropy → 0.17</text>
  <rect x="317" y="262" width="230" height="286" fill="#F2A65A" opacity="0.05"/>
  <line x1="317" y1="262" x2="317" y2="548" stroke="#F2A65A" stroke-width="1" opacity="0.4"/>
  <text x="329" y="286" fill="#F2A65A" font-family="ui-monospace,'SF Mono',Menlo,monospace" font-size="12" letter-spacing="1.5">EXPLOSION</text>
  <text x="329" y="304" fill="#6B7A80" font-family="ui-monospace,'SF Mono',Menlo,monospace" font-size="10.5">Ch 41 · the trap</text>
  <rect x="548" y="262" width="668" height="286" fill="#4FB286" opacity="0.05"/>
  <line x1="548" y1="262" x2="548" y2="548" stroke="#4FB286" stroke-width="1" opacity="0.4"/>
  <text x="560" y="286" fill="#4FB286" font-family="ui-monospace,'SF Mono',Menlo,monospace" font-size="12" letter-spacing="1.5">CLIP-COV · DAMPED</text>
  <text x="560" y="304" fill="#6B7A80" font-family="ui-monospace,'SF Mono',Menlo,monospace" font-size="10.5">Ch 43 · what held</text>
  <path d="M64.0,342.1 L65.4,341.5 L66.9,343.3 L68.3,340.8 L69.8,343.7 L71.2,341.3 L72.6,343.3 L74.1,342.7 L75.5,342.4 L77.0,344.1 L78.4,341.9 L79.8,344.9 L81.3,342.5 L82.7,344.7 L84.2,344.1 L85.6,344.0 L87.0,345.8 L88.5,343.7 L89.9,346.8 L91.4,344.4 L92.8,346.8 L94.2,346.1 L95.7,346.3 L97.1,348.0 L98.6,346.1 L100.0,349.2 L101.4,346.9 L102.9,349.4 L104.3,348.7 L105.8,349.1 L107.2,350.8 L108.6,349.0 L110.1,352.2 L111.5,349.9 L113.0,352.6 L114.4,351.8 L115.8,352.4 L117.3,354.0 L118.7,352.4 L120.2,355.6 L121.6,353.4 L123.0,356.3 L124.5,355.4 L125.9,356.2 L127.4,357.8 L128.8,356.3 L130.2,359.6 L131.7,357.4 L133.1,360.4 L134.6,359.5 L136.0,360.5 L137.4,362.0 L138.9,360.7 L140.3,363.9 L141.8,361.8 L143.2,364.9 L144.6,364.0 L146.1,365.2 L147.5,366.6 L149.0,365.5 L150.4,368.7 L151.8,366.7 L153.3,369.9 L154.7,368.9 L156.2,370.3 L157.6,371.6 L159.0,370.7 L160.5,373.9 L161.9,371.9 L163.4,375.3 L164.8,374.2 L166.2,375.8 L167.7,377.0 L169.1,376.3 L170.6,379.5 L172.0,377.6 L173.4,381.0 L174.9,379.9 L176.3,381.7 L177.8,382.8 L179.2,382.3 L180.6,385.5 L182.1,383.6 L183.5,387.2 L185.0,386.0 L186.4,388.0 L187.8,389.0 L189.3,388.6 L190.7,391.8 L192.2,390.0 L193.6,393.7 L195.0,392.5 L196.5,394.6 L197.9,395.6 L199.4,395.4 L200.8,398.5 L202.2,396.8 L203.7,400.5 L205.1,399.3 L206.6,401.6 L208.0,402.5 L209.4,402.4 L210.9,405.6 L212.3,403.9 L213.8,407.7 L215.2,406.5 L216.6,409.0 L218.1,409.8 L219.5,409.9 L221.0,413.0 L222.4,411.4 L223.8,415.3 L225.3,414.0 L226.7,416.7 L228.2,417.4 L229.6,417.7 L231.0,420.7 L232.5,419.2 L233.9,423.2 L235.4,421.9 L236.8,424.7 L238.2,425.3 L239.7,425.8 L241.1,428.8 L242.6,427.4 L244.0,431.4 L245.4,430.1 L246.9,433.1 L248.3,433.6 L249.8,434.3 L251.2,437.1 L252.6,435.9 L254.1,439.9 L255.5,438.6 L257.0,441.7 L258.4,442.2 L259.8,443.0 L261.3,445.9 L262.7,444.8 L264.2,448.8 L265.6,447.5 L267.0,450.8 L268.5,451.1 L269.9,452.2 L271.4,454.9 L272.8,453.9 L274.2,458.0 L275.7,456.7 L277.1,460.1 L278.6,460.3 L280.0,461.6 L281.4,464.2 L282.9,463.4 L284.3,467.5 L285.8,466.2 L287.2,469.7 L288.6,469.9 L290.1,471.3 L291.5,473.9 L293.0,473.2 L294.4,477.3 L295.8,476.0 L297.3,479.6 L298.7,479.8 L300.2,481.4 L301.6,483.8 L303.0,483.3 L304.5,487.4 L305.9,486.1 L307.4,489.9 L308.8,489.9 L310.2,491.7 L311.7,494.1 L313.1,493.6 L314.6,497.8 L316.0,496.5 L317.4,500.4 L318.9,498.8 L320.3,499.3 L321.8,500.0 L323.2,498.2 L324.6,500.7 L326.1,497.8 L327.5,500.3 L329.0,498.5 L330.4,499.0 L331.8,499.5 L333.3,497.7 L334.7,500.1 L336.2,497.2 L337.6,499.5 L339.0,497.6 L340.5,498.1 L341.9,498.5 L343.4,496.6 L344.8,498.9 L346.2,495.8 L347.7,498.2 L349.1,496.0 L350.6,496.6 L352.0,496.7 L353.4,494.9 L354.9,497.0 L356.3,493.9 L357.8,496.1 L359.2,493.8 L360.6,494.4 L362.1,494.2 L363.5,492.4 L365.0,494.3 L366.4,491.1 L367.8,493.4 L369.3,490.8 L370.7,491.4 L372.2,491.0 L373.6,489.2 L375.0,490.9 L376.5,487.7 L377.9,489.8 L379.4,487.0 L380.8,487.7 L382.2,487.0 L383.7,485.3 L385.1,486.7 L386.6,483.4 L388.0,485.5 L389.4,482.5 L390.9,483.1 L392.3,482.2 L393.8,480.5 L395.2,481.7 L396.6,478.3 L398.1,480.3 L399.5,477.1 L401.0,477.8 L402.4,476.6 L403.8,474.8 L405.3,475.9 L406.7,472.4 L408.2,474.3 L409.6,470.9 L411.0,471.5 L412.5,470.1 L413.9,468.4 L415.4,469.2 L416.8,465.6 L418.2,467.4 L419.7,463.8 L421.1,464.4 L422.6,462.7 L424.0,461.0 L425.4,461.6 L426.9,458.0 L428.3,459.6 L429.8,455.8 L431.2,456.5 L432.6,454.5 L434.1,452.8 L435.5,453.1 L437.0,449.4 L438.4,450.9 L439.8,447.0 L441.3,447.6 L442.7,445.3 L444.2,443.6 L445.6,443.7 L447.0,440.0 L448.5,441.3 L449.9,437.2 L451.4,437.8 L452.8,435.3 L454.2,433.6 L455.7,433.4 L457.1,429.6 L458.6,430.8 L460.0,426.5 L461.4,427.0 L462.9,424.3 L464.3,422.6 L465.8,422.1 L467.2,418.3 L468.6,419.3 L470.1,414.8 L471.5,415.3 L473.0,412.3 L474.4,410.6 L475.8,409.9 L477.3,406.0 L478.7,406.9 L480.2,402.2 L481.6,402.7 L483.0,399.4 L484.5,397.7 L485.9,396.7 L487.4,392.8 L488.8,393.4 L490.2,388.7 L491.7,389.0 L493.1,385.5 L494.6,383.8 L496.0,382.6 L497.4,378.6 L498.9,379.0 L500.3,374.1 L501.8,374.4 L503.2,370.6 L504.6,368.9 L506.1,367.4 L507.5,363.4 L509.0,363.7 L510.4,358.6 L511.8,358.8 L513.3,354.7 L514.7,353.0 L516.2,351.3 L517.6,347.2 L519.0,347.3 L520.5,342.0 L521.9,342.2 L523.4,337.9 L524.8,336.2 L526.2,334.1 L527.7,330.0 L529.1,329.8 L530.6,324.5 L532.0,324.5 L533.4,320.0 L534.9,318.2 L536.3,315.9 L537.8,311.8 L539.2,311.4 L540.6,305.9 L542.1,305.9 L543.5,301.0 L545.0,299.3 L546.4,296.7 L547.8,295.4 L549.3,298.7 L550.7,297.2 L552.2,301.1 L553.6,300.2 L555.0,302.7 L556.5,304.1 L557.9,304.4 L559.4,308.0 L560.8,306.8 L562.2,311.1 L563.7,310.5 L565.1,313.4 L566.6,314.9 L568.0,315.6 L569.4,319.4 L570.9,318.5 L572.3,323.0 L573.8,322.6 L575.2,325.8 L576.6,327.4 L578.1,328.4 L579.5,332.3 L581.0,331.6 L582.4,336.4 L583.8,336.0 L585.3,339.5 L586.7,341.1 L588.2,342.3 L589.6,346.2 L591.0,345.7 L592.5,350.5 L593.9,350.1 L595.4,353.8 L596.8,355.3 L598.2,356.7 L599.7,360.6 L601.1,360.1 L602.6,365.0 L604.0,364.5 L605.4,368.3 L606.9,369.7 L608.3,371.2 L609.8,374.9 L611.2,374.4 L612.6,379.2 L614.1,378.7 L615.5,382.5 L617.0,383.7 L618.4,385.3 L619.8,388.8 L621.3,388.3 L622.7,393.0 L624.2,392.2 L625.6,396.1 L627.0,397.0 L628.5,398.6 L629.9,401.8 L631.4,401.3 L632.8,405.8 L634.2,404.9 L635.7,408.7 L637.1,409.3 L638.6,410.8 L640.0,413.8 L641.4,413.1 L642.9,417.5 L644.3,416.3 L645.8,420.0 L647.2,420.3 L648.6,421.8 L650.1,424.4 L651.5,423.7 L653.0,427.7 L654.4,426.3 L655.8,429.9 L657.3,429.9 L658.7,431.3 L660.2,433.5 L661.6,432.7 L663.0,436.5 L664.5,434.9 L665.9,438.3 L667.4,437.9 L668.8,439.2 L670.2,441.1 L671.7,440.1 L673.1,443.7 L674.6,441.8 L676.0,445.0 L677.4,444.3 L678.9,445.5 L680.3,447.1 L681.8,445.9 L683.2,449.2 L684.6,447.1 L686.1,450.2 L687.5,449.1 L689.0,450.2 L690.4,451.4 L691.8,450.2 L693.3,453.2 L694.7,450.8 L696.2,453.7 L697.6,452.3 L699.0,453.4 L700.5,454.2 L701.9,452.9 L703.4,455.6 L704.8,453.0 L706.2,455.8 L707.7,454.1 L709.1,455.1 L710.6,455.6 L712.0,454.2 L713.4,456.6 L714.9,453.9 L716.3,456.5 L717.8,454.5 L719.2,455.5 L720.6,455.6 L722.1,454.2 L723.5,456.3 L725.0,453.5 L726.4,456.0 L727.8,453.7 L729.3,454.6 L730.7,454.5 L732.2,453.0 L733.6,455.0 L735.0,452.0 L736.5,454.4 L737.9,451.9 L739.4,452.8 L740.8,452.4 L742.2,450.9 L743.7,452.7 L745.1,449.6 L746.6,451.9 L748.0,449.2 L749.4,450.1 L750.9,449.5 L752.3,448.0 L753.8,449.6 L755.2,446.4 L756.6,448.7 L758.1,445.8 L759.5,446.8 L761.0,446.0 L762.4,444.5 L763.8,445.9 L765.3,442.8 L766.7,445.0 L768.2,442.0 L769.6,443.0 L771.0,442.0 L772.5,440.6 L773.9,441.8 L775.4,438.7 L776.8,440.9 L778.2,437.8 L779.7,438.9 L781.1,437.7 L782.6,436.4 L784.0,437.5 L785.4,434.4 L786.9,436.6 L788.3,433.4 L789.8,434.6 L791.2,433.2 L792.6,432.1 L794.1,433.1 L795.5,430.1 L797.0,432.3 L798.4,429.0 L799.8,430.3 L801.3,428.9 L802.7,427.9 L804.2,428.8 L805.6,425.8 L807.0,428.0 L808.5,424.8 L809.9,426.2 L811.4,424.6 L812.8,423.8 L814.2,424.6 L815.7,421.8 L817.1,424.0 L818.6,420.7 L820.0,422.3 L821.4,420.6 L822.9,420.0 L824.3,420.7 L825.8,418.0 L827.2,420.2 L828.6,417.0 L830.1,418.7 L831.5,416.9 L833.0,416.5 L834.4,417.2 L835.8,414.6 L837.3,416.8 L838.7,413.6 L840.2,415.5 L841.6,413.7 L843.0,413.5 L844.5,414.1 L845.9,411.6 L847.4,413.9 L848.8,410.7 L850.2,412.7 L851.7,410.9 L853.1,410.9 L854.6,411.4 L856.0,409.1 L857.4,411.4 L858.9,408.3 L860.3,410.5 L861.8,408.5 L863.2,408.8 L864.6,409.2 L866.1,407.1 L867.5,409.4 L869.0,406.4 L870.4,408.7 L871.8,406.7 L873.3,407.1 L874.7,407.5 L876.2,405.6 L877.6,407.9 L879.0,404.9 L880.5,407.3 L881.9,405.3 L883.4,406.0 L884.8,406.3 L886.2,404.6 L887.7,406.8 L889.1,404.0 L890.6,406.5 L892.0,404.4 L893.4,405.3 L894.9,405.5 L896.3,404.0 L897.8,406.2 L899.2,403.4 L900.6,406.0 L902.1,404.0 L903.5,405.0 L905.0,405.1 L906.4,403.8 L907.8,406.0 L909.3,403.3 L910.7,406.0 L912.2,403.9 L913.6,405.1 L915.0,405.2 L916.5,404.0 L917.9,406.2 L919.4,403.5 L920.8,406.3 L922.2,404.2 L923.7,405.6 L925.1,405.5 L926.6,404.5 L928.0,406.7 L929.4,404.1 L930.9,407.0 L932.3,404.8 L933.8,406.3 L935.2,406.1 L936.6,405.3 L938.1,407.4 L939.5,404.9 L941.0,407.8 L942.4,405.6 L943.8,407.3 L945.3,407.0 L946.7,406.3 L948.2,408.4 L949.6,405.9 L951.0,408.9 L952.5,406.6 L953.9,408.4 L955.4,408.0 L956.8,407.5 L958.2,409.5 L959.7,407.1 L961.1,410.1 L962.6,407.7 L964.0,409.7 L965.4,409.2 L966.9,408.8 L968.3,410.7 L969.8,408.4 L971.2,411.4 L972.6,409.0 L974.1,411.0 L975.5,410.4 L977.0,410.2 L978.4,411.9 L979.8,409.7 L981.3,412.7 L982.7,410.2 L984.2,412.4 L985.6,411.6 L987.0,411.6 L988.5,413.2 L989.9,411.0 L991.4,414.0 L992.8,411.5 L994.2,413.8 L995.7,412.9 L997.1,412.9 L998.6,414.4 L1000.0,412.3 L1001.4,415.3 L1002.9,412.7 L1004.3,415.1 L1005.8,414.0 L1007.2,414.2 L1008.6,415.6 L1010.1,413.6 L1011.5,416.4 L1013.0,413.9 L1014.4,416.3 L1015.8,415.1 L1017.3,415.4 L1018.7,416.6 L1020.2,414.7 L1021.6,417.5 L1023.0,414.9 L1024.5,417.4 L1025.9,416.1 L1027.4,416.5 L1028.8,417.6 L1030.2,415.7 L1031.7,418.5 L1033.1,415.8 L1034.6,418.4 L1036.0,416.9 L1037.4,417.5 L1038.9,418.4 L1040.3,416.6 L1041.8,419.3 L1043.2,416.6 L1044.6,419.2 L1046.1,417.6 L1047.5,418.3 L1049.0,419.1 L1050.4,417.4 L1051.8,420.0 L1053.3,417.3 L1054.7,419.9 L1056.2,418.2 L1057.6,419.0 L1059.0,419.6 L1060.5,418.0 L1061.9,420.5 L1063.4,417.8 L1064.8,420.5 L1066.2,418.6 L1067.7,419.5 L1069.1,420.0 L1070.6,418.5 L1072.0,420.9 L1073.4,418.2 L1074.9,420.9 L1076.3,418.9 L1077.8,419.9 L1079.2,420.2 L1080.6,418.8 L1082.1,421.1 L1083.5,418.4 L1085.0,421.1 L1086.4,419.0 L1087.8,420.2 L1089.3,420.3 L1090.7,419.0 L1092.2,421.2 L1093.6,418.5 L1095.0,421.3 L1096.5,419.1 L1097.9,420.3 L1099.4,420.3 L1100.8,419.1 L1102.2,421.2 L1103.7,418.5 L1105.1,421.3 L1106.6,419.0 L1108.0,420.3 L1109.4,420.1 L1110.9,419.1 L1112.3,421.1 L1113.8,418.4 L1115.2,421.2 L1116.6,418.8 L1118.1,420.2 L1119.5,419.9 L1121.0,419.0 L1122.4,420.9 L1123.8,418.2 L1125.3,421.0 L1126.7,418.5 L1128.2,420.1 L1129.6,419.6 L1131.0,418.8 L1132.5,420.6 L1133.9,418.0 L1135.4,420.7 L1136.8,418.2 L1138.2,419.9 L1139.7,419.2 L1141.1,418.5 L1142.6,420.2 L1144.0,417.7 L1145.4,420.4 L1146.9,417.8 L1148.3,419.6 L1149.8,418.8 L1151.2,418.3 L1152.6,419.8 L1154.1,417.3 L1155.5,420.1 L1157.0,417.4 L1158.4,419.3 L1159.8,418.3 L1161.3,417.9 L1162.7,419.4 L1164.2,417.0 L1165.6,419.7 L1167.0,417.0 L1168.5,418.9 L1169.9,417.9 L1171.4,417.6 L1172.8,418.9 L1174.2,416.6 L1175.7,419.3 L1177.1,416.5 L1178.6,418.6 L1180.0,417.4 L1181.4,417.3 L1182.9,418.5 L1184.3,416.2 L1185.8,418.9 L1187.2,416.1 L1188.6,418.3 L1190.1,417.0 L1191.5,417.0 L1193.0,418.0 L1194.4,415.9 L1195.8,418.5 L1197.3,415.7 L1198.7,418.0 L1200.2,416.5 L1201.6,416.7 L1203.0,417.6 L1204.5,415.6 L1205.9,418.2 L1207.4,415.4 L1208.8,417.7 L1210.2,416.1 L1211.7,416.4 L1213.1,417.2 L1214.6,415.3 L1216.0,417.8 L1216,548 L64,548 Z" fill="url(#fade)"/>
  <path d="M64.0,342.1 L65.4,341.5 L66.9,343.3 L68.3,340.8 L69.8,343.7 L71.2,341.3 L72.6,343.3 L74.1,342.7 L75.5,342.4 L77.0,344.1 L78.4,341.9 L79.8,344.9 L81.3,342.5 L82.7,344.7 L84.2,344.1 L85.6,344.0 L87.0,345.8 L88.5,343.7 L89.9,346.8 L91.4,344.4 L92.8,346.8 L94.2,346.1 L95.7,346.3 L97.1,348.0 L98.6,346.1 L100.0,349.2 L101.4,346.9 L102.9,349.4 L104.3,348.7 L105.8,349.1 L107.2,350.8 L108.6,349.0 L110.1,352.2 L111.5,349.9 L113.0,352.6 L114.4,351.8 L115.8,352.4 L117.3,354.0 L118.7,352.4 L120.2,355.6 L121.6,353.4 L123.0,356.3 L124.5,355.4 L125.9,356.2 L127.4,357.8 L128.8,356.3 L130.2,359.6 L131.7,357.4 L133.1,360.4 L134.6,359.5 L136.0,360.5 L137.4,362.0 L138.9,360.7 L140.3,363.9 L141.8,361.8 L143.2,364.9 L144.6,364.0 L146.1,365.2 L147.5,366.6 L149.0,365.5 L150.4,368.7 L151.8,366.7 L153.3,369.9 L154.7,368.9 L156.2,370.3 L157.6,371.6 L159.0,370.7 L160.5,373.9 L161.9,371.9 L163.4,375.3 L164.8,374.2 L166.2,375.8 L167.7,377.0 L169.1,376.3 L170.6,379.5 L172.0,377.6 L173.4,381.0 L174.9,379.9 L176.3,381.7 L177.8,382.8 L179.2,382.3 L180.6,385.5 L182.1,383.6 L183.5,387.2 L185.0,386.0 L186.4,388.0 L187.8,389.0 L189.3,388.6 L190.7,391.8 L192.2,390.0 L193.6,393.7 L195.0,392.5 L196.5,394.6 L197.9,395.6 L199.4,395.4 L200.8,398.5 L202.2,396.8 L203.7,400.5 L205.1,399.3 L206.6,401.6 L208.0,402.5 L209.4,402.4 L210.9,405.6 L212.3,403.9 L213.8,407.7 L215.2,406.5 L216.6,409.0 L218.1,409.8 L219.5,409.9 L221.0,413.0 L222.4,411.4 L223.8,415.3 L225.3,414.0 L226.7,416.7 L228.2,417.4 L229.6,417.7 L231.0,420.7 L232.5,419.2 L233.9,423.2 L235.4,421.9 L236.8,424.7 L238.2,425.3 L239.7,425.8 L241.1,428.8 L242.6,427.4 L244.0,431.4 L245.4,430.1 L246.9,433.1 L248.3,433.6 L249.8,434.3 L251.2,437.1 L252.6,435.9 L254.1,439.9 L255.5,438.6 L257.0,441.7 L258.4,442.2 L259.8,443.0 L261.3,445.9 L262.7,444.8 L264.2,448.8 L265.6,447.5 L267.0,450.8 L268.5,451.1 L269.9,452.2 L271.4,454.9 L272.8,453.9 L274.2,458.0 L275.7,456.7 L277.1,460.1 L278.6,460.3 L280.0,461.6 L281.4,464.2 L282.9,463.4 L284.3,467.5 L285.8,466.2 L287.2,469.7 L288.6,469.9 L290.1,471.3 L291.5,473.9 L293.0,473.2 L294.4,477.3 L295.8,476.0 L297.3,479.6 L298.7,479.8 L300.2,481.4 L301.6,483.8 L303.0,483.3 L304.5,487.4 L305.9,486.1 L307.4,489.9 L308.8,489.9 L310.2,491.7 L311.7,494.1 L313.1,493.6 L314.6,497.8 L316.0,496.5 L317.4,500.4 L318.9,498.8 L320.3,499.3 L321.8,500.0 L323.2,498.2 L324.6,500.7 L326.1,497.8 L327.5,500.3 L329.0,498.5 L330.4,499.0 L331.8,499.5 L333.3,497.7 L334.7,500.1 L336.2,497.2 L337.6,499.5 L339.0,497.6 L340.5,498.1 L341.9,498.5 L343.4,496.6 L344.8,498.9 L346.2,495.8 L347.7,498.2 L349.1,496.0 L350.6,496.6 L352.0,496.7 L353.4,494.9 L354.9,497.0 L356.3,493.9 L357.8,496.1 L359.2,493.8 L360.6,494.4 L362.1,494.2 L363.5,492.4 L365.0,494.3 L366.4,491.1 L367.8,493.4 L369.3,490.8 L370.7,491.4 L372.2,491.0 L373.6,489.2 L375.0,490.9 L376.5,487.7 L377.9,489.8 L379.4,487.0 L380.8,487.7 L382.2,487.0 L383.7,485.3 L385.1,486.7 L386.6,483.4 L388.0,485.5 L389.4,482.5 L390.9,483.1 L392.3,482.2 L393.8,480.5 L395.2,481.7 L396.6,478.3 L398.1,480.3 L399.5,477.1 L401.0,477.8 L402.4,476.6 L403.8,474.8 L405.3,475.9 L406.7,472.4 L408.2,474.3 L409.6,470.9 L411.0,471.5 L412.5,470.1 L413.9,468.4 L415.4,469.2 L416.8,465.6 L418.2,467.4 L419.7,463.8 L421.1,464.4 L422.6,462.7 L424.0,461.0 L425.4,461.6 L426.9,458.0 L428.3,459.6 L429.8,455.8 L431.2,456.5 L432.6,454.5 L434.1,452.8 L435.5,453.1 L437.0,449.4 L438.4,450.9 L439.8,447.0 L441.3,447.6 L442.7,445.3 L444.2,443.6 L445.6,443.7 L447.0,440.0 L448.5,441.3 L449.9,437.2 L451.4,437.8 L452.8,435.3 L454.2,433.6 L455.7,433.4 L457.1,429.6 L458.6,430.8 L460.0,426.5 L461.4,427.0 L462.9,424.3 L464.3,422.6 L465.8,422.1 L467.2,418.3 L468.6,419.3 L470.1,414.8 L471.5,415.3 L473.0,412.3 L474.4,410.6 L475.8,409.9 L477.3,406.0 L478.7,406.9 L480.2,402.2 L481.6,402.7 L483.0,399.4 L484.5,397.7 L485.9,396.7 L487.4,392.8 L488.8,393.4 L490.2,388.7 L491.7,389.0 L493.1,385.5 L494.6,383.8 L496.0,382.6 L497.4,378.6 L498.9,379.0 L500.3,374.1 L501.8,374.4 L503.2,370.6 L504.6,368.9 L506.1,367.4 L507.5,363.4 L509.0,363.7 L510.4,358.6 L511.8,358.8 L513.3,354.7 L514.7,353.0 L516.2,351.3 L517.6,347.2 L519.0,347.3 L520.5,342.0 L521.9,342.2 L523.4,337.9 L524.8,336.2 L526.2,334.1 L527.7,330.0 L529.1,329.8 L530.6,324.5 L532.0,324.5 L533.4,320.0 L534.9,318.2 L536.3,315.9 L537.8,311.8 L539.2,311.4 L540.6,305.9 L542.1,305.9 L543.5,301.0 L545.0,299.3 L546.4,296.7 L547.8,295.4 L549.3,298.7 L550.7,297.2 L552.2,301.1 L553.6,300.2 L555.0,302.7 L556.5,304.1 L557.9,304.4 L559.4,308.0 L560.8,306.8 L562.2,311.1 L563.7,310.5 L565.1,313.4 L566.6,314.9 L568.0,315.6 L569.4,319.4 L570.9,318.5 L572.3,323.0 L573.8,322.6 L575.2,325.8 L576.6,327.4 L578.1,328.4 L579.5,332.3 L581.0,331.6 L582.4,336.4 L583.8,336.0 L585.3,339.5 L586.7,341.1 L588.2,342.3 L589.6,346.2 L591.0,345.7 L592.5,350.5 L593.9,350.1 L595.4,353.8 L596.8,355.3 L598.2,356.7 L599.7,360.6 L601.1,360.1 L602.6,365.0 L604.0,364.5 L605.4,368.3 L606.9,369.7 L608.3,371.2 L609.8,374.9 L611.2,374.4 L612.6,379.2 L614.1,378.7 L615.5,382.5 L617.0,383.7 L618.4,385.3 L619.8,388.8 L621.3,388.3 L622.7,393.0 L624.2,392.2 L625.6,396.1 L627.0,397.0 L628.5,398.6 L629.9,401.8 L631.4,401.3 L632.8,405.8 L634.2,404.9 L635.7,408.7 L637.1,409.3 L638.6,410.8 L640.0,413.8 L641.4,413.1 L642.9,417.5 L644.3,416.3 L645.8,420.0 L647.2,420.3 L648.6,421.8 L650.1,424.4 L651.5,423.7 L653.0,427.7 L654.4,426.3 L655.8,429.9 L657.3,429.9 L658.7,431.3 L660.2,433.5 L661.6,432.7 L663.0,436.5 L664.5,434.9 L665.9,438.3 L667.4,437.9 L668.8,439.2 L670.2,441.1 L671.7,440.1 L673.1,443.7 L674.6,441.8 L676.0,445.0 L677.4,444.3 L678.9,445.5 L680.3,447.1 L681.8,445.9 L683.2,449.2 L684.6,447.1 L686.1,450.2 L687.5,449.1 L689.0,450.2 L690.4,451.4 L691.8,450.2 L693.3,453.2 L694.7,450.8 L696.2,453.7 L697.6,452.3 L699.0,453.4 L700.5,454.2 L701.9,452.9 L703.4,455.6 L704.8,453.0 L706.2,455.8 L707.7,454.1 L709.1,455.1 L710.6,455.6 L712.0,454.2 L713.4,456.6 L714.9,453.9 L716.3,456.5 L717.8,454.5 L719.2,455.5 L720.6,455.6 L722.1,454.2 L723.5,456.3 L725.0,453.5 L726.4,456.0 L727.8,453.7 L729.3,454.6 L730.7,454.5 L732.2,453.0 L733.6,455.0 L735.0,452.0 L736.5,454.4 L737.9,451.9 L739.4,452.8 L740.8,452.4 L742.2,450.9 L743.7,452.7 L745.1,449.6 L746.6,451.9 L748.0,449.2 L749.4,450.1 L750.9,449.5 L752.3,448.0 L753.8,449.6 L755.2,446.4 L756.6,448.7 L758.1,445.8 L759.5,446.8 L761.0,446.0 L762.4,444.5 L763.8,445.9 L765.3,442.8 L766.7,445.0 L768.2,442.0 L769.6,443.0 L771.0,442.0 L772.5,440.6 L773.9,441.8 L775.4,438.7 L776.8,440.9 L778.2,437.8 L779.7,438.9 L781.1,437.7 L782.6,436.4 L784.0,437.5 L785.4,434.4 L786.9,436.6 L788.3,433.4 L789.8,434.6 L791.2,433.2 L792.6,432.1 L794.1,433.1 L795.5,430.1 L797.0,432.3 L798.4,429.0 L799.8,430.3 L801.3,428.9 L802.7,427.9 L804.2,428.8 L805.6,425.8 L807.0,428.0 L808.5,424.8 L809.9,426.2 L811.4,424.6 L812.8,423.8 L814.2,424.6 L815.7,421.8 L817.1,424.0 L818.6,420.7 L820.0,422.3 L821.4,420.6 L822.9,420.0 L824.3,420.7 L825.8,418.0 L827.2,420.2 L828.6,417.0 L830.1,418.7 L831.5,416.9 L833.0,416.5 L834.4,417.2 L835.8,414.6 L837.3,416.8 L838.7,413.6 L840.2,415.5 L841.6,413.7 L843.0,413.5 L844.5,414.1 L845.9,411.6 L847.4,413.9 L848.8,410.7 L850.2,412.7 L851.7,410.9 L853.1,410.9 L854.6,411.4 L856.0,409.1 L857.4,411.4 L858.9,408.3 L860.3,410.5 L861.8,408.5 L863.2,408.8 L864.6,409.2 L866.1,407.1 L867.5,409.4 L869.0,406.4 L870.4,408.7 L871.8,406.7 L873.3,407.1 L874.7,407.5 L876.2,405.6 L877.6,407.9 L879.0,404.9 L880.5,407.3 L881.9,405.3 L883.4,406.0 L884.8,406.3 L886.2,404.6 L887.7,406.8 L889.1,404.0 L890.6,406.5 L892.0,404.4 L893.4,405.3 L894.9,405.5 L896.3,404.0 L897.8,406.2 L899.2,403.4 L900.6,406.0 L902.1,404.0 L903.5,405.0 L905.0,405.1 L906.4,403.8 L907.8,406.0 L909.3,403.3 L910.7,406.0 L912.2,403.9 L913.6,405.1 L915.0,405.2 L916.5,404.0 L917.9,406.2 L919.4,403.5 L920.8,406.3 L922.2,404.2 L923.7,405.6 L925.1,405.5 L926.6,404.5 L928.0,406.7 L929.4,404.1 L930.9,407.0 L932.3,404.8 L933.8,406.3 L935.2,406.1 L936.6,405.3 L938.1,407.4 L939.5,404.9 L941.0,407.8 L942.4,405.6 L943.8,407.3 L945.3,407.0 L946.7,406.3 L948.2,408.4 L949.6,405.9 L951.0,408.9 L952.5,406.6 L953.9,408.4 L955.4,408.0 L956.8,407.5 L958.2,409.5 L959.7,407.1 L961.1,410.1 L962.6,407.7 L964.0,409.7 L965.4,409.2 L966.9,408.8 L968.3,410.7 L969.8,408.4 L971.2,411.4 L972.6,409.0 L974.1,411.0 L975.5,410.4 L977.0,410.2 L978.4,411.9 L979.8,409.7 L981.3,412.7 L982.7,410.2 L984.2,412.4 L985.6,411.6 L987.0,411.6 L988.5,413.2 L989.9,411.0 L991.4,414.0 L992.8,411.5 L994.2,413.8 L995.7,412.9 L997.1,412.9 L998.6,414.4 L1000.0,412.3 L1001.4,415.3 L1002.9,412.7 L1004.3,415.1 L1005.8,414.0 L1007.2,414.2 L1008.6,415.6 L1010.1,413.6 L1011.5,416.4 L1013.0,413.9 L1014.4,416.3 L1015.8,415.1 L1017.3,415.4 L1018.7,416.6 L1020.2,414.7 L1021.6,417.5 L1023.0,414.9 L1024.5,417.4 L1025.9,416.1 L1027.4,416.5 L1028.8,417.6 L1030.2,415.7 L1031.7,418.5 L1033.1,415.8 L1034.6,418.4 L1036.0,416.9 L1037.4,417.5 L1038.9,418.4 L1040.3,416.6 L1041.8,419.3 L1043.2,416.6 L1044.6,419.2 L1046.1,417.6 L1047.5,418.3 L1049.0,419.1 L1050.4,417.4 L1051.8,420.0 L1053.3,417.3 L1054.7,419.9 L1056.2,418.2 L1057.6,419.0 L1059.0,419.6 L1060.5,418.0 L1061.9,420.5 L1063.4,417.8 L1064.8,420.5 L1066.2,418.6 L1067.7,419.5 L1069.1,420.0 L1070.6,418.5 L1072.0,420.9 L1073.4,418.2 L1074.9,420.9 L1076.3,418.9 L1077.8,419.9 L1079.2,420.2 L1080.6,418.8 L1082.1,421.1 L1083.5,418.4 L1085.0,421.1 L1086.4,419.0 L1087.8,420.2 L1089.3,420.3 L1090.7,419.0 L1092.2,421.2 L1093.6,418.5 L1095.0,421.3 L1096.5,419.1 L1097.9,420.3 L1099.4,420.3 L1100.8,419.1 L1102.2,421.2 L1103.7,418.5 L1105.1,421.3 L1106.6,419.0 L1108.0,420.3 L1109.4,420.1 L1110.9,419.1 L1112.3,421.1 L1113.8,418.4 L1115.2,421.2 L1116.6,418.8 L1118.1,420.2 L1119.5,419.9 L1121.0,419.0 L1122.4,420.9 L1123.8,418.2 L1125.3,421.0 L1126.7,418.5 L1128.2,420.1 L1129.6,419.6 L1131.0,418.8 L1132.5,420.6 L1133.9,418.0 L1135.4,420.7 L1136.8,418.2 L1138.2,419.9 L1139.7,419.2 L1141.1,418.5 L1142.6,420.2 L1144.0,417.7 L1145.4,420.4 L1146.9,417.8 L1148.3,419.6 L1149.8,418.8 L1151.2,418.3 L1152.6,419.8 L1154.1,417.3 L1155.5,420.1 L1157.0,417.4 L1158.4,419.3 L1159.8,418.3 L1161.3,417.9 L1162.7,419.4 L1164.2,417.0 L1165.6,419.7 L1167.0,417.0 L1168.5,418.9 L1169.9,417.9 L1171.4,417.6 L1172.8,418.9 L1174.2,416.6 L1175.7,419.3 L1177.1,416.5 L1178.6,418.6 L1180.0,417.4 L1181.4,417.3 L1182.9,418.5 L1184.3,416.2 L1185.8,418.9 L1187.2,416.1 L1188.6,418.3 L1190.1,417.0 L1191.5,417.0 L1193.0,418.0 L1194.4,415.9 L1195.8,418.5 L1197.3,415.7 L1198.7,418.0 L1200.2,416.5 L1201.6,416.7 L1203.0,417.6 L1204.5,415.6 L1205.9,418.2 L1207.4,415.4 L1208.8,417.7 L1210.2,416.1 L1211.7,416.4 L1213.1,417.2 L1214.6,415.3 L1216.0,417.8" fill="none" stroke="#E8E4DA" stroke-width="2.3" stroke-linecap="round" stroke-linejoin="round"/>
  <circle cx="1216.0" cy="417.8" r="4" fill="#E8E4DA"/>
  <circle cx="1216.0" cy="417.8" r="9" fill="none" stroke="#E8E4DA" stroke-width="1" opacity="0.3"/>
  <text x="64" y="572" fill="#6B7A80" font-family="ui-monospace,'SF Mono',Menlo,monospace" font-size="10.5" letter-spacing="1.6">POLICY ENTROPY · TRAINING STEP →</text>
  <line x1="64" y1="576" x2="1216" y2="576" stroke="#22303A" stroke-width="1"/>
  <text x="64" y="608" fill="#E8E4DA" font-family="Georgia,'IBM Plex Serif',serif" font-size="18">Every paper would show you the last third.<tspan fill="#4FB286" dx="9">This book is the whole line.</tspan></text>
</svg>